<svg width="395" height="64" viewBox="0 0 395 64" fill="none" xmlns="http://www.w3.org/2000/svg">
<g clip-path="url(#clip0_11_84)">
<path d="M0 34.912H29.2379V64.0001H46.7838V17.4561H0V34.912Z" fill="white"/>
<path d="M81.8755 0H46.7837V17.456H81.8755V0Z" fill="white"/>
<path d="M145.778 17.4561H111.113V24.1288H124.749V57.9404H132.143V24.1288H145.778V17.4561Z" fill="white"/>
<path d="M191.133 30.1096H184.655V33.6463C182.19 30.9662 178.809 29.4258 175.198 29.4258C167.519 29.4258 160.694 35.2418 160.694 44.0209C160.694 52.8 167.512 58.616 175.198 58.616C178.864 58.616 182.364 57.0755 184.884 54.1675L185.919 57.9322H192.855L191.133 51.6603V30.1096ZM183.967 44.0209C183.967 48.8073 180.468 52.3441 175.886 52.3441C171.304 52.3441 167.804 48.8073 167.804 44.0209C167.804 39.2345 171.304 35.6977 175.886 35.6977C180.468 35.6977 183.793 39.0065 183.967 43.6829V44.0288V44.0209Z" fill="white"/>
<path d="M210.606 52.2974C205.732 52.2974 202.177 48.8785 202.177 44.0292C202.177 39.1799 205.558 35.706 210.369 35.706L217.764 38.276V31.3754C215.528 30.2908 212.779 29.4341 209.856 29.4341C202.058 29.4341 195.067 35.2501 195.067 44.0292C195.067 52.8083 202.058 58.6243 209.856 58.6243C213.466 58.6243 216.16 57.7126 218.854 56.1171L216.507 49.9553C214.904 51.2678 212.842 52.2895 210.606 52.2895V52.2974Z" fill="white"/>
<path d="M249.695 30.1099H241.037L230.719 42.8894V17.4561H223.617V57.9404H230.719V44.257L241.092 57.9404H250.098L238.232 43.4553L249.695 30.1099Z" fill="white"/>
<path d="M258.291 37.0102C258.291 35.4697 259.262 34.6759 261.269 34.6759H261.387L269.643 37.8669V31.595C267.636 30.4554 264.832 29.4258 261.387 29.4258C255.889 29.4258 252.105 32.4517 252.105 37.1831C252.105 47.3298 264.769 44.9955 264.769 50.4657C264.769 52.2891 263.505 53.3737 261.387 53.3737H260.7L252.105 50.0649V56.3918C254.625 57.7043 257.667 58.616 260.874 58.616C267.233 58.616 271.191 55.5351 271.191 50.1199C271.191 40.0833 258.299 42.0796 258.299 37.0024L258.291 37.0102Z" fill="white"/>
<path d="M326.222 30.1096H319.744V33.6463C317.28 30.9662 313.898 29.4258 310.288 29.4258C302.609 29.4258 295.784 35.2418 295.784 44.0209C295.784 52.8 302.601 58.616 310.288 58.616C313.954 58.616 317.453 57.0755 319.973 54.1675L321.008 57.9322H327.945L326.222 51.6603V30.1096ZM319.057 44.0209C319.057 48.8073 315.557 52.3441 310.975 52.3441C306.393 52.3441 302.894 48.8073 302.894 44.0209C302.894 39.2345 306.393 35.6977 310.975 35.6977C315.557 35.6977 318.883 39.0065 319.057 43.6829V44.0288V44.0209Z" fill="white"/>
<path d="M345.19 52.2974C340.316 52.2974 336.761 48.8785 336.761 44.0292C336.761 39.1799 340.142 35.706 344.953 35.706L352.348 38.276V31.3754C350.112 30.2908 347.363 29.4341 344.44 29.4341C336.643 29.4341 329.651 35.2501 329.651 44.0292C329.651 52.8083 336.643 58.6243 344.44 58.6243C348.05 58.6243 350.744 57.7126 353.438 56.1171L351.092 49.9553C349.488 51.2678 347.426 52.2895 345.19 52.2895V52.2974Z" fill="white"/>
<path d="M383.34 30.1099H374.689L364.372 42.8894V17.4561H357.262V57.9404H364.372V44.257L374.744 57.9404H383.743L371.877 43.4553L383.34 30.1099Z" fill="white"/>
<path d="M390.307 53.6413H390.347C391.532 53.6413 392.18 52.8868 392.18 51.9751C392.18 51.0634 391.532 50.3481 390.347 50.3481H388.143V55.9834H389.407V53.547L390.987 55.9834H392.559L391.097 53.8378L390.315 53.6413H390.307ZM389.407 52.7532V51.4328H390.149C390.56 51.4328 390.892 51.6607 390.892 52.0772C390.892 52.4938 390.56 52.7532 390.149 52.7532H389.407Z" fill="white"/>
<path d="M389.976 48.2339C387.155 48.2339 384.935 50.2302 384.935 53.1697C384.935 56.1091 387.155 58.1054 389.976 58.1054C392.796 58.1054 395 56.1091 395 53.1697C395 50.2302 392.78 48.2339 389.976 48.2339ZM389.96 57.2252C387.621 57.2252 385.852 55.559 385.852 53.1618C385.852 50.7646 387.621 49.0984 389.96 49.0984C392.298 49.0984 394.068 50.7646 394.068 53.1618C394.068 55.559 392.298 57.2252 389.96 57.2252Z" fill="white"/>
<path d="M142.405 57.9404H149.507V36.6097H159.335V30.1099H142.405V57.9404Z" fill="white"/>
<path d="M284.732 23.5708H277.748V30.2986H273.569V36.5705H277.748V49.0907C277.748 54.6867 280.79 57.9326 287.031 57.9326H290.128V51.6057L287.481 51.8258C285.514 51.8258 284.724 50.4268 284.724 48.1318V36.5626H294.489V30.2907H284.724V23.563L284.732 23.5708Z" fill="white"/>
</g>
<defs>
<clipPath id="clip0_11_84">
<rect width="395" height="64" fill="white"/>
</clipPath>
</defs>
</svg>
